<svg width="197" height="29" viewBox="0 0 197 29" fill="none" xmlns="http://www.w3.org/2000/svg">
<rect width="197" height="29" rx="5" fill="#C1C4C7"/>
<path d="M19.1591 20H21.0334L16.8075 14.3771L20.8793 9.81818H19.005L15.157 14.1186H14.6548V9.81818H13.1186V20H14.6548V15.4361H15.7386L19.1591 20ZM22.7163 22.8636C23.9442 22.8636 24.7198 22.2223 25.1623 21.0192L28.3192 12.3786L26.7134 12.3636L24.7795 18.2898H24.6999L22.766 12.3636H21.1751L23.9691 20.0994L23.7852 20.6065C23.4073 21.6207 22.8754 21.7053 22.06 21.4815L21.7021 22.6996C21.881 22.7791 22.2688 22.8636 22.7163 22.8636ZM29.72 22.8636H31.2065V18.8118H31.296C31.5645 19.299 32.1113 20.1491 33.5034 20.1491C35.3528 20.1491 36.6951 18.6676 36.6951 16.1967C36.6951 13.7209 35.3329 12.2642 33.4885 12.2642C32.0716 12.2642 31.5595 13.1293 31.296 13.6016H31.1717V12.3636H29.72V22.8636ZM31.1767 16.1818C31.1767 14.5859 31.8727 13.527 33.1703 13.527C34.5176 13.527 35.1937 14.6655 35.1937 16.1818C35.1937 17.7131 34.4977 18.8814 33.1703 18.8814C31.8926 18.8814 31.1767 17.7876 31.1767 16.1818ZM39.8173 14.9886V12.3636H38.3606V20H41.6966C43.5659 20 44.6099 18.9162 44.6099 17.4794C44.6099 16.0128 43.5659 14.9886 41.6966 14.9886H39.8173ZM39.8173 16.2713H41.6966C42.5517 16.2713 43.1632 16.7884 43.1632 17.5241C43.1632 18.2202 42.5517 18.7173 41.6966 18.7173H39.8173V16.2713ZM49.5678 20.1541C51.2333 20.1541 52.4116 19.3338 52.7496 18.0909L51.3427 17.8374C51.0742 18.5582 50.4279 18.9261 49.5827 18.9261C48.31 18.9261 47.4549 18.1009 47.4151 16.6293H52.8441V16.1023C52.8441 13.343 51.1935 12.2642 49.4634 12.2642C47.3356 12.2642 45.9336 13.8849 45.9336 16.2315C45.9336 18.603 47.3157 20.1541 49.5678 20.1541ZM47.4201 15.5156C47.4798 14.4318 48.2653 13.4922 49.4734 13.4922C50.6268 13.4922 51.3825 14.3473 51.3874 15.5156H47.4201ZM54.4934 22.8636H55.9799V18.8118H56.0694C56.3379 19.299 56.8848 20.1491 58.2768 20.1491C60.1262 20.1491 61.4686 18.6676 61.4686 16.1967C61.4686 13.7209 60.1064 12.2642 58.2619 12.2642C56.845 12.2642 56.3329 13.1293 56.0694 13.6016H55.9451V12.3636H54.4934V22.8636ZM55.9501 16.1818C55.9501 14.5859 56.6461 13.527 57.9437 13.527C59.291 13.527 59.9672 14.6655 59.9672 16.1818C59.9672 17.7131 59.2711 18.8814 57.9437 18.8814C56.666 18.8814 55.9501 17.7876 55.9501 16.1818ZM66.8391 20H68.2859V13.6463H71.6119V20H73.0685V12.3636H66.8391V20ZM78.2725 20.1541C80.4252 20.1541 81.8322 18.5781 81.8322 16.2166C81.8322 13.8402 80.4252 12.2642 78.2725 12.2642C76.1199 12.2642 74.7129 13.8402 74.7129 16.2166C74.7129 18.5781 76.1199 20.1541 78.2725 20.1541ZM78.2775 18.9062C76.8706 18.9062 76.2143 17.6783 76.2143 16.2116C76.2143 14.75 76.8706 13.5071 78.2775 13.5071C79.6745 13.5071 80.3308 14.75 80.3308 16.2116C80.3308 17.6783 79.6745 18.9062 78.2775 18.9062ZM83.4915 20H84.9382V13.6463H88.2642V20H89.7209V12.3636H83.4915V20ZM91.7083 22.8636H93.1948V18.8118H93.2843C93.5527 19.299 94.0996 20.1491 95.4917 20.1491C97.3411 20.1491 98.6834 18.6676 98.6834 16.1967C98.6834 13.7209 97.3212 12.2642 95.4767 12.2642C94.0598 12.2642 93.5478 13.1293 93.2843 13.6016H93.16V12.3636H91.7083V22.8636ZM93.165 16.1818C93.165 14.5859 93.861 13.527 95.1586 13.527C96.5059 13.527 97.182 14.6655 97.182 16.1818C97.182 17.7131 96.486 18.8814 95.1586 18.8814C93.8809 18.8814 93.165 17.7876 93.165 16.1818ZM103.566 20.1541C105.718 20.1541 107.125 18.5781 107.125 16.2166C107.125 13.8402 105.718 12.2642 103.566 12.2642C101.413 12.2642 100.006 13.8402 100.006 16.2166C100.006 18.5781 101.413 20.1541 103.566 20.1541ZM103.57 18.9062C102.164 18.9062 101.507 17.6783 101.507 16.2116C101.507 14.75 102.164 13.5071 103.57 13.5071C104.968 13.5071 105.624 14.75 105.624 16.2116C105.624 17.6783 104.968 18.9062 103.57 18.9062ZM112.001 20.1541C113.806 20.1541 114.974 19.0703 115.138 17.5838H113.691C113.502 18.4091 112.861 18.8963 112.011 18.8963C110.753 18.8963 109.943 17.8473 109.943 16.1818C109.943 14.5462 110.768 13.517 112.011 13.517C112.956 13.517 113.532 14.1136 113.691 14.8295H115.138C114.979 13.2884 113.721 12.2642 111.986 12.2642C109.833 12.2642 108.441 13.8849 108.441 16.2166C108.441 18.5185 109.784 20.1541 112.001 20.1541ZM118.184 17.9169V12.3636H116.728V20H118.344L121.694 14.4418V20H123.151V12.3636H121.55L118.184 17.9169ZM124.203 13.6463H126.703V20H128.155V13.6463H130.646V12.3636H124.203V13.6463ZM135.923 22.8636H137.41V18.8118H137.499C137.768 19.299 138.314 20.1491 139.706 20.1491C141.556 20.1491 142.898 18.6676 142.898 16.1967C142.898 13.7209 141.536 12.2642 139.692 12.2642C138.275 12.2642 137.763 13.1293 137.499 13.6016H137.375V12.3636H135.923V22.8636ZM137.38 16.1818C137.38 14.5859 138.076 13.527 139.373 13.527C140.721 13.527 141.397 14.6655 141.397 16.1818C141.397 17.7131 140.701 18.8814 139.373 18.8814C138.096 18.8814 137.38 17.7876 137.38 16.1818ZM147.855 20.1541C149.52 20.1541 150.699 19.3338 151.037 18.0909L149.63 17.8374C149.361 18.5582 148.715 18.9261 147.87 18.9261C146.597 18.9261 145.742 18.1009 145.702 16.6293H151.131V16.1023C151.131 13.343 149.481 12.2642 147.751 12.2642C145.623 12.2642 144.221 13.8849 144.221 16.2315C144.221 18.603 145.603 20.1541 147.855 20.1541ZM145.707 15.5156C145.767 14.4318 146.552 13.4922 147.76 13.4922C148.914 13.4922 149.67 14.3473 149.675 15.5156H145.707ZM159.005 12.3636H157.558V18.7173H154.232V12.3636H152.776V20H158.662V22.4609H160.134V18.782H159.005V12.3636ZM164.986 20.1541C166.651 20.1541 167.83 19.3338 168.168 18.0909L166.761 17.8374C166.492 18.5582 165.846 18.9261 165.001 18.9261C163.728 18.9261 162.873 18.1009 162.833 16.6293H168.262V16.1023C168.262 13.343 166.612 12.2642 164.881 12.2642C162.754 12.2642 161.352 13.8849 161.352 16.2315C161.352 18.603 162.734 20.1541 164.986 20.1541ZM162.838 15.5156C162.898 14.4318 163.683 13.4922 164.891 13.4922C166.045 13.4922 166.8 14.3473 166.805 15.5156H162.838ZM169.911 20H171.358V13.6463H174.684V20H176.141V12.3636H169.911V20ZM177.181 13.6463H179.682V20H181.134V13.6463H183.624V12.3636H177.181V13.6463Z" fill="white"/>
</svg>
