<svg width="167" height="50" viewBox="0 0 167 50" fill="none" xmlns="http://www.w3.org/2000/svg">
<rect width="167" height="50" rx="5" fill="url(#paint0_linear_2_472)"/>
<path d="M43.7474 32H46.1572L40.724 24.7706L45.959 18.9091H43.5492L38.6018 24.4382H37.9562V18.9091H35.9811V32H37.9562V26.1321H39.3497L43.7474 32ZM50.6908 32.2173C52.3143 32.2173 53.2284 31.3928 53.5927 30.6577H53.6694V32H55.5359V25.4801C55.5359 22.6229 53.2859 22.054 51.7263 22.054C49.9493 22.054 48.3129 22.7699 47.6737 24.5597L49.4699 24.9688C49.7511 24.272 50.467 23.6009 51.7518 23.6009C52.9855 23.6009 53.6183 24.2464 53.6183 25.3587V25.4034C53.6183 26.1001 52.9024 26.0874 51.1382 26.2919C49.2781 26.5092 47.3733 26.995 47.3733 29.2259C47.3733 31.1562 48.8243 32.2173 50.6908 32.2173ZM51.1062 30.6832C50.026 30.6832 49.2461 30.1974 49.2461 29.2514C49.2461 28.2287 50.1538 27.8643 51.2596 27.7173C51.8797 27.6342 53.3498 27.468 53.6247 27.1932V28.4588C53.6247 29.6222 52.6979 30.6832 51.1062 30.6832ZM56.8639 23.831H60.0791V32H61.9455V23.831H65.148V22.1818H56.8639V23.831ZM69.5697 32.2173C71.1932 32.2173 72.1073 31.3928 72.4716 30.6577H72.5484V32H74.4148V25.4801C74.4148 22.6229 72.1648 22.054 70.6052 22.054C68.8282 22.054 67.1918 22.7699 66.5526 24.5597L68.3488 24.9688C68.63 24.272 69.3459 23.6009 70.6307 23.6009C71.8644 23.6009 72.4972 24.2464 72.4972 25.3587V25.4034C72.4972 26.1001 71.7813 26.0874 70.0171 26.2919C68.157 26.5092 66.2522 26.995 66.2522 29.2259C66.2522 31.1562 67.7032 32.2173 69.5697 32.2173ZM69.9851 30.6832C68.9049 30.6832 68.1251 30.1974 68.1251 29.2514C68.1251 28.2287 69.0327 27.8643 70.1385 27.7173C70.7586 27.6342 72.2287 27.468 72.5036 27.1932V28.4588C72.5036 29.6222 71.5768 30.6832 69.9851 30.6832ZM76.187 32H76.8007C78.942 32 79.7282 30.4148 79.8816 27.1676L80.035 23.831H83.2438V32H85.1167V22.1818H78.2644L78.0919 26.5284C77.9704 29.5582 77.6252 30.3445 76.5322 30.3445H76.1806L76.187 32ZM91.8012 32.1982C94.5689 32.1982 96.3779 30.1719 96.3779 27.1357C96.3779 24.0803 94.5689 22.054 91.8012 22.054C89.0334 22.054 87.2245 24.0803 87.2245 27.1357C87.2245 30.1719 89.0334 32.1982 91.8012 32.1982ZM91.8076 30.5938C89.9986 30.5938 89.1549 29.0149 89.1549 27.1293C89.1549 25.25 89.9986 23.652 91.8076 23.652C93.6037 23.652 94.4475 25.25 94.4475 27.1293C94.4475 29.0149 93.6037 30.5938 91.8076 30.5938ZM104.788 22.1818H98.5112V32H100.397V23.831H104.788V22.1818Z" fill="white"/>
<path fill-rule="evenodd" clip-rule="evenodd" d="M119.043 22.3537L120.457 20.9395L125.75 26.2323L131.043 20.9395L132.457 22.3537L125.75 29.0608L119.043 22.3537Z" fill="white"/>
<defs>
<linearGradient id="paint0_linear_2_472" x1="152.476" y1="34.0072" x2="-0.0488787" y2="33.0852" gradientUnits="userSpaceOnUse">
<stop stop-color="#8168F0"/>
<stop offset="1" stop-color="#68F096"/>
</linearGradient>
</defs>
</svg>
