<svg width="126" height="40" viewBox="0 0 126 40" fill="none" xmlns="http://www.w3.org/2000/svg">
<path d="M38.3889 26.6734L27.4788 19.9998L38.3885 13.3261C38.5762 13.2111 38.7107 13.0264 38.7622 12.8121C38.8137 12.5979 38.778 12.372 38.6634 12.1843L35.4575 6.94396C35.2188 6.55283 34.7068 6.42951 34.3157 6.66867L23.9013 13.0396V0.830418C23.9013 0.372027 23.5293 0 23.0709 0H16.9286C16.4702 0 16.0982 0.372027 16.0982 0.830418V13.0396L5.68341 6.66909C5.29145 6.42993 4.78073 6.55283 4.54157 6.94437L1.33571 12.1847C1.22111 12.3724 1.1854 12.5983 1.23689 12.8125C1.28837 13.0268 1.4229 13.2115 1.61058 13.3266L12.5207 19.9998L1.61058 26.6734C1.4229 26.788 1.28837 26.9732 1.23689 27.1871C1.1854 27.4017 1.22111 27.6276 1.33571 27.8153L4.54157 33.0552C4.78073 33.4463 5.29145 33.5701 5.68341 33.3309L16.0982 26.9599V39.1692C16.0982 39.6276 16.4702 39.9996 16.9286 39.9996H23.0709C23.5293 39.9996 23.9013 39.6276 23.9013 39.1692V26.9604L34.3161 33.3305C34.7072 33.5697 35.2192 33.4463 35.458 33.0556L38.6638 27.8153C38.7784 27.6276 38.8141 27.4017 38.7626 27.1875C38.7116 26.9728 38.5766 26.7885 38.3889 26.6734Z" fill="url(#paint0_radial_2_602)"/>
<path d="M48 16.9761V1.271H51.3301V14.2261H57.7002V16.9761H48Z" fill="#21A038"/>
<path d="M74.6943 9.10205C74.6943 11.7017 74.0498 13.6997 72.7607 15.0962C71.4717 16.4927 69.624 17.1909 67.2178 17.1909C64.8115 17.1909 62.9639 16.4927 61.6748 15.0962C60.3857 13.6997 59.7412 11.6945 59.7412 9.08057C59.7412 6.46663 60.3857 4.47217 61.6748 3.09717C62.971 1.71501 64.8258 1.02393 67.2393 1.02393C69.6527 1.02393 71.4967 1.71859 72.7715 3.10791C74.0534 4.49723 74.6943 6.49528 74.6943 9.10205ZM63.2324 9.10205C63.2324 10.8566 63.5654 12.1779 64.2314 13.0659C64.8975 13.9539 65.8929 14.3979 67.2178 14.3979C69.8747 14.3979 71.2031 12.6326 71.2031 9.10205C71.2031 5.56429 69.8818 3.79541 67.2393 3.79541C65.9144 3.79541 64.9154 4.243 64.2422 5.13818C63.569 6.0262 63.2324 7.34749 63.2324 9.10205Z" fill="#21A038"/>
<path d="M84.6201 3.81689C83.3669 3.81689 82.3965 4.28955 81.709 5.23486C81.0215 6.17301 80.6777 7.48356 80.6777 9.1665C80.6777 12.6685 81.9919 14.4194 84.6201 14.4194C85.723 14.4194 87.0586 14.1437 88.627 13.5923V16.3853C87.3379 16.9224 85.8984 17.1909 84.3086 17.1909C82.0241 17.1909 80.2767 16.4998 79.0664 15.1177C77.8561 13.7284 77.251 11.7375 77.251 9.14502C77.251 7.51221 77.5482 6.0835 78.1426 4.85889C78.737 3.62712 79.5892 2.68538 80.6992 2.03369C81.8164 1.37484 83.1234 1.04541 84.6201 1.04541C86.1455 1.04541 87.6781 1.41423 89.2178 2.15186L88.1436 4.85889C87.5563 4.57959 86.9655 4.3361 86.3711 4.12842C85.7767 3.92074 85.193 3.81689 84.6201 3.81689Z" fill="#21A038"/>
<path d="M101.593 16.9761L100.454 13.2378H94.7285L93.5898 16.9761H90.002L95.5449 1.20654H99.6162L105.181 16.9761H101.593ZM99.6592 10.4448C98.6064 7.05745 98.012 5.14176 97.876 4.69775C97.7471 4.25374 97.654 3.90283 97.5967 3.64502C97.3604 4.56169 96.6836 6.82829 95.5664 10.4448H99.6592Z" fill="#21A038"/>
<path d="M107.168 16.9761V1.271H110.498V14.2261H116.868V16.9761H107.168Z" fill="#21A038"/>
<path d="M51.3301 30.6616H52.4258C53.4499 30.6616 54.2161 30.4611 54.7246 30.0601C55.2331 29.6519 55.4873 29.061 55.4873 28.2876C55.4873 27.507 55.2725 26.9305 54.8428 26.5581C54.4202 26.1857 53.7542 25.9995 52.8447 25.9995H51.3301V30.6616ZM58.8496 28.1694C58.8496 29.8595 58.3197 31.1522 57.2598 32.0474C56.207 32.9425 54.7067 33.3901 52.7588 33.3901H51.3301V38.9761H48V23.271H53.0166C54.9215 23.271 56.3682 23.6828 57.3564 24.5063C58.3519 25.3228 58.8496 26.5438 58.8496 28.1694Z" fill="#21A038"/>
<path d="M74.6836 38.9761H71.3643V32.1978H65.1445V38.9761H61.8145V23.271H65.1445V29.4263H71.3643V23.271H74.6836V38.9761Z" fill="#21A038"/>
<path d="M88.2725 38.9761L87.1338 35.2378H81.4082L80.2695 38.9761H76.6816L82.2246 23.2065H86.2959L91.8604 38.9761H88.2725ZM86.3389 32.4448C85.2861 29.0575 84.6917 27.1418 84.5557 26.6978C84.4268 26.2537 84.3337 25.9028 84.2764 25.645C84.04 26.5617 83.3633 28.8283 82.2461 32.4448H86.3389Z" fill="#21A038"/>
<path d="M97.1777 30.2427H98.252C99.3047 30.2427 100.082 30.0672 100.583 29.7163C101.084 29.3654 101.335 28.814 101.335 28.062C101.335 27.3172 101.077 26.7873 100.562 26.4722C100.053 26.1571 99.2617 25.9995 98.1875 25.9995H97.1777V30.2427ZM97.1777 32.9497V38.9761H93.8477V23.271H98.4238C100.558 23.271 102.137 23.6613 103.161 24.4419C104.185 25.2153 104.697 26.3934 104.697 27.9761C104.697 28.8999 104.443 29.7235 103.935 30.4468C103.426 31.1629 102.706 31.7251 101.775 32.1333C104.139 35.6639 105.678 37.9448 106.395 38.9761H102.699L98.9502 32.9497H97.1777Z" fill="#21A038"/>
<path d="M115.021 38.9761L111.239 26.6548H111.143C111.279 29.1613 111.347 30.8335 111.347 31.6714V38.9761H108.371V23.271H112.904L116.621 35.2808H116.686L120.628 23.271H125.161V38.9761H122.057V31.5425C122.057 31.1916 122.06 30.7869 122.067 30.3286C122.082 29.8703 122.132 28.6528 122.218 26.6763H122.121L118.071 38.9761H115.021Z" fill="#21A038"/>
<defs>
<radialGradient id="paint0_radial_2_602" cx="0" cy="0" r="1" gradientUnits="userSpaceOnUse" gradientTransform="translate(19.9998 19.9998) rotate(89.9994) scale(21.5002 20.1952)">
<stop stop-color="#84CC9D"/>
<stop offset="0.9999" stop-color="#8866EC"/>
<stop offset="1" stop-color="#A585FF"/>
</radialGradient>
</defs>
</svg>
