<svg width="295" height="55" viewBox="0 0 295 55" fill="none" xmlns="http://www.w3.org/2000/svg">
<path d="M16.7827 6.76105C16.1364 2.71702 12.9695 0.353382 8.97159 0.353382C4.07812 0.353382 0.46804 4.01886 0.46804 10.0665C0.46804 16.114 4.05966 19.7795 8.97159 19.7795C13.1264 19.7795 16.1641 17.1758 16.7827 13.4365L13.902 13.4272C13.4126 15.8463 11.3814 17.1758 8.99006 17.1758C5.74929 17.1758 3.30256 14.6922 3.30256 10.0665C3.30256 5.47767 5.74006 2.95708 8.99929 2.95708C11.4091 2.95708 13.4311 4.31432 13.902 6.76105H16.7827ZM19.975 19.521H22.7356V13.852H24.5268L28.8017 19.521H32.2271L26.6689 12.2362L32.1625 5.33918H28.7463L24.0652 11.2852H22.7356V5.33918H19.975V19.521ZM38.4986 19.8349C40.8438 19.8349 42.1641 18.6439 42.6903 17.5821H42.8011V19.521H45.4972V10.1034C45.4972 5.97625 42.2472 5.15452 39.9943 5.15452C37.4276 5.15452 35.0639 6.18861 34.1406 8.77384L36.7351 9.36475C37.1413 8.35835 38.1754 7.38889 40.0312 7.38889C41.8132 7.38889 42.7273 8.32142 42.7273 9.92796V9.99259C42.7273 10.999 41.6932 10.9805 39.1449 11.276C36.4581 11.5899 33.7067 12.2916 33.7067 15.5139C33.7067 18.3022 35.8026 19.8349 38.4986 19.8349ZM39.0987 17.619C37.5384 17.619 36.4119 16.9173 36.4119 15.5508C36.4119 14.0736 37.723 13.5473 39.3203 13.3349C40.2159 13.2149 42.3395 12.9748 42.7365 12.5778V14.4059C42.7365 16.0863 41.3977 17.619 39.0987 17.619ZM60.5584 5.33918H57.8624V12.4024C56.9299 12.6517 55.9881 12.7994 54.9078 12.7994C53.0243 12.7994 51.861 11.95 51.861 9.94642V5.31148H49.1742V9.94642C49.1742 13.4919 51.3993 15.1815 54.9078 15.1815C55.9789 15.1815 56.9576 15.0338 57.8624 14.803V19.521H60.5584V5.33918ZM68.358 19.8349C70.7031 19.8349 72.0234 18.6439 72.5497 17.5821H72.6605V19.521H75.3565V10.1034C75.3565 5.97625 72.1065 5.15452 69.8537 5.15452C67.2869 5.15452 64.9233 6.18861 64 8.77384L66.5945 9.36475C67.0007 8.35835 68.0348 7.38889 69.8906 7.38889C71.6726 7.38889 72.5866 8.32142 72.5866 9.92796V9.99259C72.5866 10.999 71.5526 10.9805 69.0043 11.276C66.3175 11.5899 63.5661 12.2916 63.5661 15.5139C63.5661 18.3022 65.6619 19.8349 68.358 19.8349ZM68.9581 17.619C67.3977 17.619 66.2713 16.9173 66.2713 15.5508C66.2713 14.0736 67.5824 13.5473 69.1797 13.3349C70.0753 13.2149 72.1989 12.9748 72.5959 12.5778V14.4059C72.5959 16.0863 71.2571 17.619 68.9581 17.619ZM81.7388 15.6524V5.33918H79.0336V19.521H82.0343L88.2573 9.19855V19.521H90.9625V5.33918H87.9895L81.7388 15.6524ZM86.8077 0.53804C86.8077 1.47057 86.2907 2.2923 84.998 2.2923C83.687 2.2923 83.1976 1.46134 83.1976 0.53804H80.9355C80.9355 2.61546 82.5144 4.04656 84.998 4.04656C87.5002 4.04656 89.079 2.61546 89.079 0.53804H86.8077ZM101.555 19.521H104.242V7.72128H110.419V19.521H113.124V5.33918H101.555V19.521ZM116.815 24.8392H119.575V17.3143H119.742C120.24 18.2191 121.256 19.798 123.841 19.798C127.276 19.798 129.769 17.0466 129.769 12.4578C129.769 7.85977 127.239 5.15452 123.813 5.15452C121.182 5.15452 120.231 6.76105 119.742 7.63818H119.511V5.33918H116.815V24.8392ZM119.52 12.4301C119.52 9.46631 120.813 7.49969 123.222 7.49969C125.725 7.49969 126.98 9.61404 126.98 12.4301C126.98 15.2738 125.688 17.4436 123.222 17.4436C120.85 17.4436 119.52 15.4123 119.52 12.4301ZM135.567 15.6524V5.33918H132.862V19.521H135.862L142.085 9.19855V19.521H144.791V5.33918H141.818L135.567 15.6524ZM147.385 19.521H148.271C151.365 19.521 152.5 17.2312 152.722 12.5409L152.943 7.72128H157.578V19.521H160.284V5.33918H150.386L150.137 11.6176C149.961 15.994 149.463 17.1297 147.884 17.1297H147.376L147.385 19.521ZM169.939 19.8072C173.937 19.8072 176.55 16.8804 176.55 12.4947C176.55 8.08136 173.937 5.15452 169.939 5.15452C165.941 5.15452 163.328 8.08136 163.328 12.4947C163.328 16.8804 165.941 19.8072 169.939 19.8072ZM169.948 17.4897C167.335 17.4897 166.116 15.2092 166.116 12.4855C166.116 9.771 167.335 7.46276 169.948 7.46276C172.543 7.46276 173.761 9.771 173.761 12.4855C173.761 15.2092 172.543 17.4897 169.948 17.4897ZM178.142 19.521H181.42L185.87 13.6119H186.794V19.521H189.554V13.6119H190.478L194.9 19.521H198.178L192.712 12.2639L198.113 5.33918H194.9L190.515 11.2298H189.554V5.33918H186.794V11.2298H185.806L181.42 5.33918H178.207L183.636 12.2639L178.142 19.521ZM206.513 19.8072C209.606 19.8072 211.794 18.2838 212.422 15.9755L209.809 15.5047C209.311 16.8434 208.11 17.5267 206.541 17.5267C204.177 17.5267 202.589 15.994 202.515 13.2611H212.597V12.2824C212.597 7.15807 209.532 5.15452 206.319 5.15452C202.367 5.15452 199.764 8.16446 199.764 12.5224C199.764 16.9265 202.33 19.8072 206.513 19.8072ZM202.524 11.1929C202.635 9.18009 204.094 7.43506 206.338 7.43506C208.48 7.43506 209.883 9.02313 209.892 11.1929H202.524ZM218.366 5.33918H215.661V19.521H218.366V13.6304H224.506V19.521H227.202V5.33918H224.506V11.239H218.366V5.33918ZM233.6 15.6524V5.33918H230.895V19.521H233.896L240.119 9.19855V19.521H242.824V5.33918H239.851L233.6 15.6524ZM252.648 19.8072C255.741 19.8072 257.929 18.2838 258.557 15.9755L255.944 15.5047C255.445 16.8434 254.245 17.5267 252.675 17.5267C250.312 17.5267 248.724 15.994 248.65 13.2611H258.732V12.2824C258.732 7.15807 255.667 5.15452 252.454 5.15452C248.502 5.15452 245.898 8.16446 245.898 12.5224C245.898 16.9265 248.465 19.8072 252.648 19.8072ZM248.659 11.1929C248.77 9.18009 250.229 7.43506 252.472 7.43506C254.614 7.43506 256.018 9.02313 256.027 11.1929H248.659ZM3.56108 46.6524V36.3392H0.855824V50.521H3.85653L10.0795 40.1986V50.521H12.7848V36.3392H9.81179L3.56108 46.6524ZM28.2523 38.5459C30.3297 38.5643 31.4469 40.374 31.7147 42.3314H26.932V44.4549H31.7239C31.4838 46.4123 30.3482 48.3513 28.2523 48.3605C26.6735 48.3513 25.3439 47.0309 25.3439 45.5167H22.7402C22.7402 48.5544 25.0392 50.7795 28.2523 50.7795C32.2686 50.7795 34.4753 47.5388 34.4753 43.6886V43.227C34.4753 39.3861 32.2594 36.1361 28.2523 36.1361C25.307 36.1361 22.7402 38.3704 22.7402 41.0295H25.3439C25.3439 39.6353 26.8212 38.5643 28.2523 38.5459ZM37.5453 50.521H40.3059V44.852H42.0971L46.372 50.521H49.7974L44.2392 43.2362L49.7328 36.3392H46.3166L41.6355 42.2852H40.3059V36.3392H37.5453V50.521ZM57.3315 50.8072C61.3294 50.8072 63.9423 47.8804 63.9423 43.4947C63.9423 39.0814 61.3294 36.1545 57.3315 36.1545C53.3336 36.1545 50.7207 39.0814 50.7207 43.4947C50.7207 47.8804 53.3336 50.8072 57.3315 50.8072ZM57.3407 48.4897C54.7278 48.4897 53.5091 46.2092 53.5091 43.4855C53.5091 40.771 54.7278 38.4628 57.3407 38.4628C59.9352 38.4628 61.1539 40.771 61.1539 43.4855C61.1539 46.2092 59.9352 48.4897 57.3407 48.4897ZM69.729 36.3392H67.0238V50.521H69.729V44.6304H75.869V50.521H78.565V36.3392H75.869V42.239H69.729V36.3392ZM88.2319 50.8072C92.2298 50.8072 94.8427 47.8804 94.8427 43.4947C94.8427 39.0814 92.2298 36.1545 88.2319 36.1545C84.234 36.1545 81.6211 39.0814 81.6211 43.4947C81.6211 47.8804 84.234 50.8072 88.2319 50.8072ZM88.2411 48.4897C85.6282 48.4897 84.4094 46.2092 84.4094 43.4855C84.4094 40.771 85.6282 38.4628 88.2411 38.4628C90.8356 38.4628 92.0543 40.771 92.0543 43.4855C92.0543 46.2092 90.8356 48.4897 88.2411 48.4897ZM105.883 47.1048L101.396 36.3392H97.9242V50.521H100.629V40.2078L104.858 50.521H106.908L111.21 40.2447V50.521H113.897V36.3392H110.463L105.883 47.1048ZM120.282 41.2142V36.3392H117.577V50.521H123.772C127.243 50.521 129.182 48.5082 129.182 45.8399C129.182 43.1162 127.243 41.2142 123.772 41.2142H120.282ZM120.282 43.5963H123.772C125.36 43.5963 126.496 44.5565 126.496 45.923C126.496 47.2156 125.36 48.1389 123.772 48.1389H120.282V43.5963ZM145.271 50.8072C148.364 50.8072 150.552 49.2838 151.18 46.9755L148.567 46.5047C148.068 47.8434 146.868 48.5267 145.298 48.5267C142.935 48.5267 141.347 46.994 141.273 44.2611H151.355V43.2824C151.355 38.1581 148.29 36.1545 145.077 36.1545C141.125 36.1545 138.521 39.1645 138.521 43.5224C138.521 47.9265 141.088 50.8072 145.271 50.8072ZM141.282 42.1929C141.393 40.1801 142.852 38.4351 145.095 38.4351C147.237 38.4351 148.641 40.0231 148.65 42.1929H141.282ZM174.74 48.1389H172.339V36.3392H169.634V48.1297H164.732V36.3392H162.026V48.1297H157.124V36.3392H154.418V50.521H171.776V54.5835H174.482L174.74 48.1389ZM183.611 50.8072C186.704 50.8072 188.892 49.2838 189.52 46.9755L186.907 46.5047C186.408 47.8434 185.208 48.5267 183.638 48.5267C181.275 48.5267 179.687 46.994 179.613 44.2611H189.695V43.2824C189.695 38.1581 186.63 36.1545 183.417 36.1545C179.465 36.1545 176.861 39.1645 176.861 43.5224C176.861 47.9265 179.428 50.8072 183.611 50.8072ZM179.622 42.1929C179.733 40.1801 181.192 38.4351 183.435 38.4351C185.577 38.4351 186.981 40.0231 186.99 42.1929H179.622ZM210.58 31.0579C209.888 31.6119 208.835 31.6119 207.367 31.6027C206.933 31.6027 206.462 31.6027 205.945 31.6119C201.347 31.7042 199.02 34.9727 199.02 41.4542V42.8576C199.02 48.065 201.606 50.8072 205.567 50.8072C209.528 50.8072 212.094 48.0558 212.094 43.6424C212.094 39.2845 209.574 36.8747 206.157 36.8747C204.099 36.8747 202.381 37.7518 201.458 39.5061H201.282C201.596 35.9145 202.944 34.1325 206.01 34.0402C208.733 33.9571 210.46 33.9663 211.725 32.803L210.58 31.0579ZM205.576 48.4897C203.231 48.4897 201.8 46.6155 201.8 43.6886C201.836 40.8172 203.249 39.1737 205.548 39.1737C207.884 39.1737 209.306 40.8172 209.306 43.6886C209.306 46.6247 207.884 48.4897 205.576 48.4897ZM221.152 50.8072C225.15 50.8072 227.763 47.8804 227.763 43.4947C227.763 39.0814 225.15 36.1545 221.152 36.1545C217.154 36.1545 214.541 39.0814 214.541 43.4947C214.541 47.8804 217.154 50.8072 221.152 50.8072ZM221.161 48.4897C218.548 48.4897 217.329 46.2092 217.329 43.4855C217.329 40.771 218.548 38.4628 221.161 38.4628C223.756 38.4628 224.974 40.771 224.974 43.4855C224.974 46.2092 223.756 48.4897 221.161 48.4897ZM229.727 50.521H230.613C233.706 50.521 234.842 48.2312 235.064 43.5409L235.285 38.7213H239.92V50.521H242.625V36.3392H232.728L232.478 42.6176C232.303 46.994 231.804 48.1297 230.225 48.1297H229.718L229.727 50.521ZM249.012 41.2142V36.3392H246.307V50.521H252.502C255.974 50.521 257.913 48.5082 257.913 45.8399C257.913 43.1162 255.974 41.2142 252.502 41.2142H249.012ZM249.012 43.5963H252.502C254.09 43.5963 255.226 44.5565 255.226 45.923C255.226 47.2156 254.09 48.1389 252.502 48.1389H249.012V43.5963ZM261.008 36.3392V50.521H278.929V36.3392H276.224V48.1297H271.321V36.3392H268.616V48.1297H263.713V36.3392H261.008ZM288.728 50.8072C291.821 50.8072 294.009 49.2838 294.637 46.9755L292.024 46.5047C291.525 47.8434 290.325 48.5267 288.756 48.5267C286.392 48.5267 284.804 46.994 284.73 44.2611H294.812V43.2824C294.812 38.1581 291.747 36.1545 288.534 36.1545C284.582 36.1545 281.979 39.1645 281.979 43.5224C281.979 47.9265 284.545 50.8072 288.728 50.8072ZM284.739 42.1929C284.85 40.1801 286.309 38.4351 288.552 38.4351C290.694 38.4351 292.098 40.0231 292.107 42.1929H284.739Z" fill="white"/>
</svg>
